<?xml version="1.0" encoding="UTF-8" standalone="no"?>
<svg
   xmlns:dc="http://purl.org/dc/elements/1.1/"
   xmlns:cc="http://creativecommons.org/ns#"
   xmlns:rdf="http://www.w3.org/1999/02/22-rdf-syntax-ns#"
   xmlns:svg="http://www.w3.org/2000/svg"
   xmlns="http://www.w3.org/2000/svg"
   xmlns:sodipodi="http://sodipodi.sourceforge.net/DTD/sodipodi-0.dtd"
   xmlns:inkscape="http://www.inkscape.org/namespaces/inkscape"
   inkscape:version="1.0 (4035a4fb49, 2020-05-01)"
   sodipodi:docname="undraw_authentication_fsn5.svg"
   version="1.1"
   viewBox="0 0 1166.17 805.09"
   height="805.09"
   width="1166.17"
   data-name="Layer 1"
   id="f9eb83fe-2109-496c-8de2-d29751931755">
  <metadata
     id="metadata182">
    <rdf:RDF>
      <cc:Work
         rdf:about="">
        <dc:format>image/svg+xml</dc:format>
        <dc:type
           rdf:resource="http://purl.org/dc/dcmitype/StillImage" />
      </cc:Work>
    </rdf:RDF>
  </metadata>
  <sodipodi:namedview
     inkscape:current-layer="f9eb83fe-2109-496c-8de2-d29751931755"
     inkscape:window-maximized="1"
     inkscape:window-y="-8"
     inkscape:window-x="-8"
     inkscape:cy="747.32494"
     inkscape:cx="-74.576192"
     inkscape:zoom="0.23626143"
     showgrid="false"
     id="namedview180"
     inkscape:window-height="705"
     inkscape:window-width="1366"
     inkscape:pageshadow="2"
     inkscape:pageopacity="0"
     guidetolerance="10"
     gridtolerance="10"
     objecttolerance="10"
     borderopacity="1"
     bordercolor="#666666"
     pagecolor="#ffffff" />
  <defs
     id="defs9">
    <linearGradient
       gradientUnits="userSpaceOnUse"
       y2="659.88"
       x2="938.51"
       y1="659.88"
       x1="785.51"
       id="b7f84a8b-804f-4004-8d61-2f9b427d4893">
      <stop
         id="stop2"
         stop-opacity="0.25"
         stop-color="gray"
         offset="0" />
      <stop
         id="stop4"
         stop-opacity="0.12"
         stop-color="gray"
         offset="0.54" />
      <stop
         id="stop6"
         stop-opacity="0.1"
         stop-color="gray"
         offset="1" />
    </linearGradient>
  </defs>
  <title
     id="title11">authentication</title>
  <path
     id="path13"
     opacity="0.1"
     fill="#6c63ff"
     transform="translate(-16.91 -47.46)"
     d="M676.53,157.07c-74.75.1-146.7-21.09-215.52-44.63S323.9,62.54,250.54,51.37c-47.18-7.18-100.83-6.52-137.71,19.55C77.33,96,67.05,137.51,62.09,175.86c-3.73,28.85-5.45,59.13,8.52,85.52,9.7,18.32,26.3,33.42,38,50.88C149.45,373,124.89,450.59,85.2,512.74c-18.61,29.16-40.41,57.11-54.48,87.94s-19.84,65.79-5.49,96.22c14.22,30.16,46.34,52.05,80.81,67,70,30.42,151.5,36.94,230.81,39.45,175.56,5.57,351.46-5.79,526.89-17.15,64.92-4.2,130.13-8.43,193.71-20.6,35.3-6.75,71.65-16.77,96.68-38.73,31.77-27.88,38.27-73.4,15.15-106.12-38.77-54.88-141-65.23-168.8-124.61-15.33-32.69-2.11-70.18,17.36-101.69,41.76-67.61,113.64-128.17,114.85-203.79.83-51.93-36.55-102.59-92.38-125.16C981.79,41.86,902,47.94,861,92,818.84,137.39,742.53,157,676.53,157.07Z" />
  <path
     id="path15"
     fill="#6c63ff"
     transform="translate(-16.91 -47.46)"
     d="M1009.44,692.82s-12.29-8.11-24.47-2.34c0,0,3.75,7.22,19.17,6.54Z" />
  <path
     id="path17"
     fill="#6c63ff"
     transform="translate(-16.91 -47.46)"
     d="M1011,693.25s3.74,14.24-5.64,23.93c0,0-5.64-5.87,0-20.25Z" />
  <path
     id="path19"
     fill="#6c63ff"
     transform="translate(-16.91 -47.46)"
     d="M1026.28,679.58s-.91-12.11-28.26-8.09c0,0-.13,7.81,9.47,11.51S1021.49,683.58,1026.28,679.58Z" />
  <path
     id="path21"
     fill="#6c63ff"
     transform="translate(-16.91 -47.46)"
     d="M1028,679.5s11.56,3.71,1.25,29.36c0,0-7.63-1.7-9-11.91S1022.94,683.22,1028,679.5Z" />
  <path
     id="path23"
     fill="#6c63ff"
     transform="translate(-16.91 -47.46)"
     d="M1043.44,662.32s1.57-19.93-26.38-17.89c0,0-2,18,21.45,22.68Z" />
  <path
     id="path25"
     fill="#6c63ff"
     transform="translate(-16.91 -47.46)"
     d="M1061.91,639.82s-3.83-22.59-31.77-15.86c0,0-.1,19.53,27.21,21.24Z" />
  <path
     id="path27"
     fill="#6c63ff"
     transform="translate(-16.91 -47.46)"
     d="M1075.41,616.56s-6.42-22-34.1-15.42c0,0,6.59,19.79,32.26,19.48Z" />
  <path
     id="path29"
     fill="#6c63ff"
     transform="translate(-16.91 -47.46)"
     d="M1088.23,593.84s-6.27-22.83-33-16c0,0,8.92,21.69,31.23,19.86Z" />
  <path
     id="path31"
     fill="#6c63ff"
     transform="translate(-16.91 -47.46)"
     d="M1096.49,572.26s-4.82-27.92-29.74-21.74c0,0,7.24,25.4,27.91,25.81Z" />
  <path
     id="path33"
     fill="#6c63ff"
     transform="translate(-16.91 -47.46)"
     d="M1104.24,546.19s-5.79-28.14-31-20c0,0,9.88,26.6,29.21,23.85Z" />
  <path
     id="path35"
     fill="#6c63ff"
     transform="translate(-16.91 -47.46)"
     d="M1109,521.93s-9.19-28.15-28.68-27.39c0,0,9.39,29.73,27.05,33Z" />
  <path
     id="path37"
     fill="#6c63ff"
     transform="translate(-16.91 -47.46)"
     d="M1112.08,498.25s-10-33.88-25.86-31.27c0,0,6.92,25.9,25.3,36.55Z" />
  <path
     id="path39"
     fill="#6c63ff"
     transform="translate(-16.91 -47.46)"
     d="M1113.82,470s-9.38-28.23-25-29.36c0,0,6.38,27.78,24.69,36.7Z" />
  <path
     id="path41"
     fill="#6c63ff"
     transform="translate(-16.91 -47.46)"
     d="M1115.71,443.64s-11.69-28.26-22-28.9c0,0,5.08,27.83,21,33.54Z" />
  <path
     id="path43"
     fill="#6c63ff"
     transform="translate(-16.91 -47.46)"
     d="M1117,419.12s-7.19-30.69-17.52-33.24c0,0,1.41,25.11,16.48,35.54Z" />
  <path
     id="path45"
     fill="#6c63ff"
     transform="translate(-16.91 -47.46)"
     d="M1120.9,387s-7.56-24.47-15.93-28.2c0,0,1.65,28.85,14,34.18Z" />
  <path
     id="path47"
     fill="#6c63ff"
     transform="translate(-16.91 -47.46)"
     d="M1124.13,366l1.52-43.14S1110,355.38,1123,373.57Z" />
  <path
     id="path49"
     fill="#6c63ff"
     transform="translate(-16.91 -47.46)"
     d="M1136.21,323.09s11.27-31.5,14-33.26c0,0-22.1,20.44-19.94,46.73Z" />
  <path
     id="path51"
     fill="#6c63ff"
     transform="translate(-16.91 -47.46)"
     d="M1044.2,662.17s19.82-2.59,19.23,25.42c0,0-17.91,2.92-23.76-20.25Z" />
  <path
     id="path53"
     fill="#6c63ff"
     transform="translate(-16.91 -47.46)"
     d="M1062.85,639.06s22.9-.07,21,28.6c0,0-19.23,3.44-25.57-23.18Z" />
  <path
     id="path55"
     fill="#6c63ff"
     transform="translate(-16.91 -47.46)"
     d="M1075.63,618.41s20.79-9.75,34.09,15.42c0,0-19.2,8.12-35.93-11.35Z" />
  <path
     id="path57"
     fill="#6c63ff"
     transform="translate(-16.91 -47.46)"
     d="M1088.69,594.05s21.29-10.37,33.79,14.21c0,0-22.18,7.64-35.55-10.32Z" />
  <path
     id="path59"
     fill="#6c63ff"
     transform="translate(-16.91 -47.46)"
     d="M1096.22,572.87s20.49-19.57,36.84.22c0,0-20.93,16.11-37.78,4.14Z" />
  <path
     id="path61"
     fill="#6c63ff"
     transform="translate(-16.91 -47.46)"
     d="M1103.08,545.52s20.61-20,36.83.92c0,0-23.13,16.43-37.57,3.28Z" />
  <path
     id="path63"
     fill="#6c63ff"
     transform="translate(-16.91 -47.46)"
     d="M1106.93,521.13s15.88-25,34.58-19.42c0,0-16.48,26.47-34.4,25.29Z" />
  <path
     id="path65"
     fill="#6c63ff"
     transform="translate(-16.91 -47.46)"
     d="M1111.61,498.09s16-31.48,31.14-26c0,0-11.54,24.2-31.55,31.31Z" />
  <path
     id="path67"
     fill="#6c63ff"
     transform="translate(-16.91 -47.46)"
     d="M1112.72,468.36s16.45-24.78,31.86-21.75c0,0-13.45,25.13-33.46,28.92Z" />
  <path
     id="path69"
     fill="#6c63ff"
     transform="translate(-16.91 -47.46)"
     d="M1114,443.09s12.75-27.81,23.11-28c0,0-6.12,27.61-22.25,32.72Z" />
  <path
     id="path71"
     fill="#6c63ff"
     transform="translate(-16.91 -47.46)"
     d="M1116.5,418.52s14.17-28.16,24.82-28.22c0,0-7.25,24.08-24.35,30.69Z" />
  <path
     id="path73"
     fill="#6c63ff"
     transform="translate(-16.91 -47.46)"
     d="M1118.63,388.76s10.6-23.3,19.38-25.94c0,0-5.3,28.4-18.21,32.12Z" />
  <path
     id="path75"
     fill="#6c63ff"
     transform="translate(-16.91 -47.46)"
     d="M1125.39,365.15l23.69-36.09s-6.07,35.6-27.15,43Z" />
  <path
     id="path77"
     fill="#6c63ff"
     transform="translate(-16.91 -47.46)"
     d="M1141.65,326s27.53-19,28.53-22.07c0,0-14,26.61-40,31.31Z" />
  <path
     id="path79"
     fill="#6c63ff"
     transform="translate(-16.91 -47.46)"
     d="M1143.3,317.45s31.61-30.39,39.68-30.36c0,0-26.07,1.19-40.44,28.74Z" />
  <path
     id="path81"
     fill="#444053"
     transform="translate(-16.91 -47.46)"
     d="M1118.94,393.27l1.15.15c5.94-46.49,14.6-74,24.38-77.37l-.38-1.1C1133.72,318.55,1125,345.64,1118.94,393.27Z" />
  <path
     id="path83"
     fill="#444053"
     transform="translate(-16.91 -47.46)"
     d="M1110.2,504.45l1.74.14c.37-4.34.65-8.78.84-13.21,1.66-38.48,4.23-73.82,7.61-100.31l-1-1.25c-3.39,26.55-6.69,62.95-8.35,101.49C1110.85,495.71,1110.57,500.13,1110.2,504.45Z" />
  <path
     id="path85"
     fill="#444053"
     transform="translate(-16.91 -47.46)"
     d="M977,715c.3-.13,30.93-13.81,62.72-46.43a252.22,252.22,0,0,0,45.85-65c14.7-29.93,23.66-66.71,26.66-102.44l-1.81.85c-6.75,80.2-43.26,135-72.29,164.85-31.48,32.33-61.77,45.87-62.07,46Z" />
  <path
     id="path87"
     fill="#3f3d56"
     transform="translate(-16.91 -47.46)"
     d="M1056.31,132.69H95.43a8.56,8.56,0,0,0-8.56,8.56v24.94h978V141.25A8.56,8.56,0,0,0,1056.31,132.69Z" />
  <path
     id="path89"
     fill="#fff"
     transform="translate(-16.91 -47.46)"
     d="M86.87,166.19V727.43a17.26,17.26,0,0,0,17.26,17.26h943.48a17.26,17.26,0,0,0,17.26-17.26V166.19Z" />
  <circle
     id="circle91"
     opacity="0.8"
     fill="#fa5959"
     r="4"
     cy="101.73"
     cx="85.45" />
  <circle
     id="circle93"
     opacity="0.8"
     fill="#fed253"
     r="4"
     cy="101.73"
     cx="96.45" />
  <circle
     id="circle95"
     opacity="0.8"
     fill="#8ccf4d"
     r="4"
     cy="101.73"
     cx="107.45" />
  <rect
     id="rect97"
     opacity="0.05"
     height="345.62"
     width="786"
     y="212.31"
     x="160.87" />
  <rect
     id="rect99"
     fill="#3f3d56"
     height="338"
     width="774"
     y="214.93"
     x="166.87" />
  <path
     id="path101"
     fill="#6c63ff"
     transform="translate(-16.91 -47.46)"
     d="M394.78,349.38a77,77,0,1,0,77,77A77,77,0,0,0,394.78,349.38Zm13.81,78.85v36.46H381.37V428.23a22.55,22.55,0,1,1,27.22,0Z" />
  <path
     id="path103"
     opacity="0.05"
     transform="translate(-16.91 -47.46)"
     d="M394.78,349.38a77,77,0,1,0,77,77A77,77,0,0,0,394.78,349.38Zm13.81,78.85v36.46H381.37V428.23a22.55,22.55,0,1,1,27.22,0Z" />
  <path
     id="path105"
     fill="#6c63ff"
     transform="translate(-16.91 -47.46)"
     d="M394.78,327.38a99,99,0,1,0,99,99A99,99,0,0,0,394.78,327.38Zm17.75,101.38v46.87h-35V428.76a29,29,0,1,1,35,0Z" />
  <rect
     id="rect107"
     fill="#fff"
     height="34"
     width="320"
     y="365.93"
     x="517.87" />
  <rect
     id="rect109"
     fill="#6c63ff"
     height="34"
     width="69"
     y="427.93"
     x="768.87" />
  <path
     id="path111"
     fill="#6c63ff"
     transform="translate(-16.91 -47.46)"
     d="M566.28,429.88h-5.79l5.15-5.14a.51.51,0,0,0,0-.71.5.5,0,0,0-.71,0l-5.15,5.15v-5.8a.5.5,0,0,0-.5-.5.51.51,0,0,0-.5.5v5.8L553.64,424a.5.5,0,0,0-.71,0,.51.51,0,0,0,0,.71l5.15,5.14h-5.8a.51.51,0,0,0-.5.5.5.5,0,0,0,.5.5h5.8L552.93,436a.51.51,0,0,0,0,.71.52.52,0,0,0,.71,0l5.14-5.15v5.79a.5.5,0,0,0,.5.5.5.5,0,0,0,.5-.5v-5.79l5.15,5.15a.52.52,0,0,0,.71,0,.51.51,0,0,0,0-.71l-5.15-5.15h5.79a.5.5,0,0,0,.5-.5A.5.5,0,0,0,566.28,429.88Z" />
  <path
     id="path113"
     fill="#6c63ff"
     transform="translate(-16.91 -47.46)"
     d="M587.28,429.88h-5.79l5.15-5.14a.51.51,0,0,0,0-.71.5.5,0,0,0-.71,0l-5.15,5.15v-5.8a.5.5,0,0,0-.5-.5.51.51,0,0,0-.5.5v5.8L574.64,424a.5.5,0,0,0-.71,0,.51.51,0,0,0,0,.71l5.15,5.14h-5.8a.51.51,0,0,0-.5.5.5.5,0,0,0,.5.5h5.8L573.93,436a.51.51,0,0,0,0,.71.52.52,0,0,0,.71,0l5.14-5.15v5.79a.5.5,0,0,0,.5.5.5.5,0,0,0,.5-.5v-5.79l5.15,5.15a.52.52,0,0,0,.71,0,.51.51,0,0,0,0-.71l-5.15-5.15h5.79a.5.5,0,0,0,.5-.5A.5.5,0,0,0,587.28,429.88Z" />
  <path
     id="path115"
     fill="#6c63ff"
     transform="translate(-16.91 -47.46)"
     d="M608.28,429.88h-5.79l5.15-5.14a.51.51,0,0,0,0-.71.5.5,0,0,0-.71,0l-5.15,5.15v-5.8a.5.5,0,0,0-.5-.5.51.51,0,0,0-.5.5v5.8L595.64,424a.5.5,0,0,0-.71,0,.51.51,0,0,0,0,.71l5.15,5.14h-5.8a.51.51,0,0,0-.5.5.5.5,0,0,0,.5.5h5.8L594.93,436a.51.51,0,0,0,0,.71.52.52,0,0,0,.71,0l5.14-5.15v5.79a.5.5,0,0,0,.5.5.5.5,0,0,0,.5-.5v-5.79l5.15,5.15a.52.52,0,0,0,.71,0,.51.51,0,0,0,0-.71l-5.15-5.15h5.79a.5.5,0,0,0,.5-.5A.5.5,0,0,0,608.28,429.88Z" />
  <path
     id="path117"
     fill="#6c63ff"
     transform="translate(-16.91 -47.46)"
     d="M629.28,429.88h-5.79l5.15-5.14a.51.51,0,0,0,0-.71.5.5,0,0,0-.71,0l-5.15,5.15v-5.8a.5.5,0,0,0-.5-.5.51.51,0,0,0-.5.5v5.8L616.64,424a.5.5,0,0,0-.71,0,.51.51,0,0,0,0,.71l5.15,5.14h-5.8a.51.51,0,0,0-.5.5.5.5,0,0,0,.5.5h5.8L615.93,436a.51.51,0,0,0,0,.71.52.52,0,0,0,.71,0l5.14-5.15v5.79a.5.5,0,0,0,.5.5.5.5,0,0,0,.5-.5v-5.79l5.15,5.15a.52.52,0,0,0,.71,0,.51.51,0,0,0,0-.71l-5.15-5.15h5.79a.5.5,0,0,0,.5-.5A.5.5,0,0,0,629.28,429.88Z" />
  <path
     id="path119"
     fill="#6c63ff"
     transform="translate(-16.91 -47.46)"
     d="M650.28,429.88h-5.79l5.15-5.14a.51.51,0,0,0,0-.71.5.5,0,0,0-.71,0l-5.15,5.15v-5.8a.5.5,0,0,0-.5-.5.51.51,0,0,0-.5.5v5.8L637.64,424a.5.5,0,0,0-.71,0,.51.51,0,0,0,0,.71l5.15,5.14h-5.8a.51.51,0,0,0-.5.5.5.5,0,0,0,.5.5h5.8L636.93,436a.51.51,0,0,0,0,.71.52.52,0,0,0,.71,0l5.14-5.15v5.79a.5.5,0,0,0,.5.5.5.5,0,0,0,.5-.5v-5.79l5.15,5.15a.52.52,0,0,0,.71,0,.51.51,0,0,0,0-.71l-5.15-5.15h5.79a.5.5,0,0,0,.5-.5A.5.5,0,0,0,650.28,429.88Z" />
  <path
     id="path121"
     fill="#6c63ff"
     transform="translate(-16.91 -47.46)"
     d="M671.28,429.88h-5.79l5.15-5.14a.51.51,0,0,0,0-.71.5.5,0,0,0-.71,0l-5.15,5.15v-5.8a.5.5,0,0,0-.5-.5.51.51,0,0,0-.5.5v5.8L658.64,424a.5.5,0,0,0-.71,0,.51.51,0,0,0,0,.71l5.15,5.14h-5.8a.51.51,0,0,0-.5.5.5.5,0,0,0,.5.5h5.8L657.93,436a.51.51,0,0,0,0,.71.52.52,0,0,0,.71,0l5.14-5.15v5.79a.5.5,0,0,0,.5.5.5.5,0,0,0,.5-.5v-5.79l5.15,5.15a.52.52,0,0,0,.71,0,.51.51,0,0,0,0-.71l-5.15-5.15h5.79a.5.5,0,0,0,.5-.5A.5.5,0,0,0,671.28,429.88Z" />
  <path
     id="path123"
     fill="#6c63ff"
     transform="translate(-16.91 -47.46)"
     d="M692.28,429.88h-5.79l5.15-5.14a.51.51,0,0,0,0-.71.5.5,0,0,0-.71,0l-5.15,5.15v-5.8a.5.5,0,0,0-.5-.5.51.51,0,0,0-.5.5v5.8L679.64,424a.5.5,0,0,0-.71,0,.51.51,0,0,0,0,.71l5.15,5.14h-5.8a.51.51,0,0,0-.5.5.5.5,0,0,0,.5.5h5.8L678.93,436a.51.51,0,0,0,0,.71.52.52,0,0,0,.71,0l5.14-5.15v5.79a.5.5,0,0,0,.5.5.5.5,0,0,0,.5-.5v-5.79l5.15,5.15a.52.52,0,0,0,.71,0,.51.51,0,0,0,0-.71l-5.15-5.15h5.79a.5.5,0,0,0,.5-.5A.5.5,0,0,0,692.28,429.88Z" />
  <path
     id="path125"
     fill="#6c63ff"
     transform="translate(-16.91 -47.46)"
     d="M713.28,429.88h-5.79l5.15-5.14a.51.51,0,0,0,0-.71.5.5,0,0,0-.71,0l-5.15,5.15v-5.8a.5.5,0,0,0-.5-.5.51.51,0,0,0-.5.5v5.8L700.64,424a.5.5,0,0,0-.71,0,.51.51,0,0,0,0,.71l5.15,5.14h-5.8a.51.51,0,0,0-.5.5.5.5,0,0,0,.5.5h5.8L699.93,436a.51.51,0,0,0,0,.71.52.52,0,0,0,.71,0l5.14-5.15v5.79a.5.5,0,0,0,.5.5.5.5,0,0,0,.5-.5v-5.79l5.15,5.15a.52.52,0,0,0,.71,0,.51.51,0,0,0,0-.71l-5.15-5.15h5.79a.5.5,0,0,0,.5-.5A.5.5,0,0,0,713.28,429.88Z" />
  <path
     id="path127"
     fill="#6c63ff"
     transform="translate(-16.91 -47.46)"
     d="M734.28,429.88h-5.79l5.15-5.14a.51.51,0,0,0,0-.71.5.5,0,0,0-.71,0l-5.15,5.15v-5.8a.5.5,0,0,0-.5-.5.51.51,0,0,0-.5.5v5.8L721.64,424a.5.5,0,0,0-.71,0,.51.51,0,0,0,0,.71l5.15,5.14h-5.8a.51.51,0,0,0-.5.5.5.5,0,0,0,.5.5h5.8L720.93,436a.51.51,0,0,0,0,.71.52.52,0,0,0,.71,0l5.14-5.15v5.79a.5.5,0,0,0,.5.5.5.5,0,0,0,.5-.5v-5.79l5.15,5.15a.52.52,0,0,0,.71,0,.51.51,0,0,0,0-.71l-5.15-5.15h5.79a.5.5,0,0,0,.5-.5A.5.5,0,0,0,734.28,429.88Z" />
  <path
     id="path129"
     fill="#6c63ff"
     transform="translate(-16.91 -47.46)"
     d="M755.28,429.88h-5.79l5.15-5.14a.51.51,0,0,0,0-.71.5.5,0,0,0-.71,0l-5.15,5.15v-5.8a.5.5,0,0,0-.5-.5.51.51,0,0,0-.5.5v5.8L742.64,424a.5.5,0,0,0-.71,0,.51.51,0,0,0,0,.71l5.15,5.14h-5.8a.51.51,0,0,0-.5.5.5.5,0,0,0,.5.5h5.8L741.93,436a.51.51,0,0,0,0,.71.52.52,0,0,0,.71,0l5.14-5.15v5.79a.5.5,0,0,0,.5.5.5.5,0,0,0,.5-.5v-5.79l5.15,5.15a.52.52,0,0,0,.71,0,.51.51,0,0,0,0-.71l-5.15-5.15h5.79a.5.5,0,0,0,.5-.5A.5.5,0,0,0,755.28,429.88Z" />
  <path
     id="path131"
     fill="#6c63ff"
     transform="translate(-16.91 -47.46)"
     d="M776.28,429.88h-5.79l5.15-5.14a.51.51,0,0,0,0-.71.5.5,0,0,0-.71,0l-5.15,5.15v-5.8a.5.5,0,0,0-.5-.5.51.51,0,0,0-.5.5v5.8L763.64,424a.5.5,0,0,0-.71,0,.51.51,0,0,0,0,.71l5.15,5.14h-5.8a.51.51,0,0,0-.5.5.5.5,0,0,0,.5.5h5.8L762.93,436a.51.51,0,0,0,0,.71.52.52,0,0,0,.71,0l5.14-5.15v5.79a.5.5,0,0,0,.5.5.5.5,0,0,0,.5-.5v-5.79l5.15,5.15a.52.52,0,0,0,.71,0,.51.51,0,0,0,0-.71l-5.15-5.15h5.79a.5.5,0,0,0,.5-.5A.5.5,0,0,0,776.28,429.88Z" />
  <g
     transform="matrix(0.58913683,0,0,0.58913683,941.73316,355.80658)"
     id="g276">
    <path
       d="m -193.44317,328.24515 a 12.41567,12.41567 0 0 1 -15.82023,-14.58779 c 7.2237,-30.05261 34.69161,-103.54642 134.758098,-134.45784 43.34522,-13.38973 84.91357,-13.6183 123.4999,-0.68442 31.74358,10.5963 52.816662,27.17817 62.896902,35.19276 a 12.31341,12.31341 0 0 1 2.01684,17.2966 q -0.0377,0.0476 -0.0758,0.0948 a 12.60339,12.60339 0 0 1 -17.560682,1.99337 c -18.26292,-14.38965 -73.68419,-58.10507 -163.507,-30.358 -87.706298,27.09323 -111.530828,90.46606 -117.710288,116.39386 a 12.231,12.231 0 0 1 -8.49772,9.11663 z"
       fill="#6c63ff"
       id="path184-9" />
    <path
       d="m 79.296888,498.46402 a 12.34637,12.34637 0 0 1 -3.06766,0.57666 c -78.1750604,4.21048 -127.91326,-60.73529 -129.95531,-63.443 l -0.37854,-0.625 c -1.24641,-1.9334 -31.34184,-47.72251 -18.09281,-84.08779 6.08557,-16.62508 19.54445,-28.29437 40.11648,-34.64925 19.13286,-5.91031 34.7889996,-4.16228 48.11506,5.35352 10.92682,7.75306 17.92964,19.31492 24.71706,30.47965 14.11648,23.18223 22.76773,34.97678 49.59965,28.17194 11.781302,-2.99018 17.282272,-12.20122 19.795382,-19.37637 6.76634,-19.52475 0.76956,-46.14261 -15.095942,-66.28064 -20.49737,-26.12617 -77.85958,-69.52025 -148.63419,-47.65734 -30.22313,9.33619 -54.957538,27.73438 -71.521658,53.06787 -13.7221,21.0243 -21.69933,47.13651 -21.87422,71.48765 -0.27535,45.34076 36.88411,104.99127 37.23649,105.53159 a 12.29021,12.29021 0 0 1 -3.90573,16.9365 q -0.0569,0.0357 -0.11432,0.0706 a 12.58421,12.58421 0 0 1 -17.235,-3.857 c -1.67723,-2.72769 -41.35566,-66.32964 -41.036,-118.73213 0.445,-56.79989 34.96136,-124.58835 111.154108,-148.125 35.218,-10.87915 72.22851,-9.05063 107.05754,5.2294 26.99516,11.13575 51.979,29.56992 68.496892,50.61924 21.09753,26.86815 28.53047,62.03785 18.92612,89.48734 -6.40291,18.29963 -19.65878,30.92632 -37.275322,35.44085 -45.91379,11.67926 -63.90024,-17.72645 -77.01809,-39.17694 -13.4702404,-21.99081 -20.9211504,-32.30138 -44.20227,-25.10964 -12.78346,3.94893 -20.6589,10.27669 -23.97114,19.368 -4.50722,12.428 -0.2356,28.3576 4.14148,39.525 q 0.068,0.17513 0.13632,0.34941 a 100.94624,100.94624 0 0 0 25.61319,37.2525 c 18.01212958,16.63359 51.45108,40.347 94.06986,38.06039 a 12.30862,12.30862 0 0 1 13.04809,11.52176 q 0.004,0.059 0.007,0.11808 a 12.57887,12.57887 0 0 1 -8.85231,12.472 z"
       fill="#6c63ff"
       id="path186-0" />
    <path
       d="m -15.501292,521.81287 a 12.61554,12.61554 0 0 1 -9.87051,-1.03136 c -38.55715,-21.8457 -65.6247,-51.22826 -85.115998,-92.41043 l -0.0784,-0.254 c -12.28417,-27.45774 -19.679,-69.409 -3.36722,-104.86565 12.04219,-26.16234 34.646398,-44.55164 67.070638,-54.56777 38.3503396,-11.84676 74.05914,-3.12453 103.36639,25.10254 a 153.17045,153.17045 0 0 1 31.98403,45.29849 12.51646,12.51646 0 0 1 -23.03067,9.80375 128.26069,128.26069 0 0 0 -26.96612,-37.76029 c -22.58989,-21.4921 -48.85011,-27.847 -78.142,-18.79853 -25.31292,7.81938 -42.74322,21.64284 -51.66594,41.09183 -12.867488,27.9938 -6.24257,62.94941 3.3706,84.46244 17.18645,36.42267 41.02542,62.25848 74.9609,81.45139 a 12.25531,12.25531 0 0 1 4.6545796,16.69492 q -0.047,0.0833 -0.0953,0.1659 a 12.56861,12.56861 0 0 1 -7.0749396,5.61677 z"
       fill="#6c63ff"
       id="path188-0" />
    <circle
       cx="-11.440924"
       cy="382.75119"
       r="15.94905"
       fill="#e6e6e6"
       id="circle190-6" />
  </g>
</svg>
